<svg xmlns="http://www.w3.org/2000/svg" viewBox="0 0 64 64" id="coin">
  <path d="M60.57 30.45a28.8 28.8 0 0 0-6.72-14.6 19.29 19.29 0 0 0-3.85-3.3 14.34 14.34 0 0 0-6.84-2.47 11.59 11.59 0 0 0-2.72.08h-.36l-5.38.88a12.21 12.21 0 0 0-1.66.41 12 12 0 0 0-2.1.88H8A2.63 2.63 0 0 0 5.34 15v3.2a2.56 2.56 0 0 0 .37 1.31 2.61 2.61 0 0 0-.87 1.94v3.19a3 3 0 0 0 .11.73A2.61 2.61 0 0 0 3 27.89v3.2a2.63 2.63 0 0 0 2.62 2.62H8a2.57 2.57 0 0 0-.08.62v3.2a2.57 2.57 0 0 0 .08.62h-.53a2.63 2.63 0 0 0-2.63 2.63V44a2.56 2.56 0 0 0 .58 1.62 2.59 2.59 0 0 0-.58 1.63v3.19a2.63 2.63 0 0 0 2.63 2.63h22.84a15 15 0 0 0 10 4.16h.32a11.36 11.36 0 0 0 1.72-.15l5.27-.88h.17a12.18 12.18 0 0 0 2.87-.84c7.57-3.3 11.75-13.76 9.91-24.91ZM7.34 15a.62.62 0 0 1 .66-.62h20.09c-.32.28-.62.58-.92.89l-.1.13q-.39.42-.75.87c-.09.11-.18.23-.26.35s-.37.48-.54.74-.18.28-.28.42-.31.5-.46.75c0 .08-.1.16-.14.24H8a.62.62 0 0 1-.63-.62Zm-.5 9.64v-3.19a.63.63 0 0 1 .63-.63H23.6c-.28.63-.52 1.29-.74 1.95-.06.19-.11.38-.17.56-.15.51-.29 1-.41 1.54 0 .13-.07.24-.1.36H7.47a.63.63 0 0 1-.63-.59ZM5 31.09v-3.2a.62.62 0 0 1 .62-.62h16.19a1.11 1.11 0 0 0 0 .19c-.1.65-.17 1.31-.22 2a1.93 1.93 0 0 1 0 .24v1.79a2.09 2.09 0 0 0 0 .25H5.62a.62.62 0 0 1-.62-.65Zm5 6.44v-3.2a.62.62 0 0 1 .62-.62h11c0 .23 0 .47.06.7s0 .37.05.56a28.944 28.944 0 0 0 .49 3.17H10.58a.62.62 0 0 1-.58-.61Zm-3.16 3.25a.63.63 0 0 1 .63-.63h15.19a3.58 3.58 0 0 0 .11.35q.23.78.48 1.53c.06.18.12.37.19.55.24.66.5 1.32.79 2a.14.14 0 0 1 0 .06H7.47a.63.63 0 0 1-.63-.64Zm.63 10.27a.63.63 0 0 1-.63-.63v-3.19a.63.63 0 0 1 .63-.63h17.78c.24.45.5.88.76 1.31l.14.21c.32.49.64 1 1 1.42a3.06 3.06 0 0 0 .21.29c.31.42.64.83 1 1.22Zm23.89.26A18.15 18.15 0 0 1 30.05 50a23.26 23.26 0 0 1-3.31-4.85 27.66 27.66 0 0 1-2.34-6.25c-.2-.77-.36-1.56-.5-2.41a29.41 29.41 0 0 1-.38-3.82V31a25.77 25.77 0 0 1 .21-3c0-.25.08-.49.11-.73s.08-.53.13-.8c.11-.56.23-1.11.37-1.65s.35-1.2.55-1.78a21 21 0 0 1 1.18-2.73c.17-.34.36-.67.55-1a13.76 13.76 0 0 1 5.06-5 10.19 10.19 0 0 1 1.89-.82L33 14a18.1 18.1 0 0 0-3.74 5.43 24.58 24.58 0 0 0-2 6.72 29 29 0 0 0-.26 6.62 31.4 31.4 0 0 0 .35 3.14 32.41 32.41 0 0 0 .79 3.51 28.66 28.66 0 0 0 2.77 6.67 23 23 0 0 0 5.61 6.74 17 17 0 0 0 3.26 2.07l.68.31a13.11 13.11 0 0 1-9.1-3.9Zm18.49 2.16a10.43 10.43 0 0 1-2.44.71c-.27 0-.56.07-.85.1h-.42a10.53 10.53 0 0 1-1.25 0 12 12 0 0 1-4.26-1.19 15.94 15.94 0 0 1-2.88-1.83 21.39 21.39 0 0 1-5.11-6.17 26.47 26.47 0 0 1-2.59-6.22 28.38 28.38 0 0 1-.73-3.29 27.71 27.71 0 0 1-.33-3 26.91 26.91 0 0 1 .27-6.22 22.24 22.24 0 0 1 1.84-6.18 16.26 16.26 0 0 1 3.34-4.86c.44-.44.93-.84 1.24-1.1h.14a11.32 11.32 0 0 1 2.25-1.3 11.93 11.93 0 0 1 1.22-.44h.24a8.56 8.56 0 0 1 1-.23.77.77 0 0 1 .2 0 9.45 9.45 0 0 1 2.27-.17 12.34 12.34 0 0 1 5.91 2.14 17.34 17.34 0 0 1 3.43 3 26.77 26.77 0 0 1 6.22 13.58c1.73 10.2-1.95 19.78-8.71 22.67Z"></path>
  <path d="M44.88 32.05c-1.46.11-2.74-1.27-2.87-3.06s1-3.32 2.42-3.42a3 3 0 0 1 2.87 3.06 1 1 0 0 0 2-.14 5.16 5.16 0 0 0-4-4.86l-.13-1.93a1 1 0 1 0-2 .14l.14 1.93A5.13 5.13 0 0 0 40 29.13a5 5 0 0 0 4.71 4.93H45a2.36 2.36 0 0 1 1.88.77 3.54 3.54 0 0 1 1 2.29 3.59 3.59 0 0 1-.66 2.4 2.4 2.4 0 0 1-1.76 1 3 3 0 0 1-2.87-3.06 1 1 0 0 0-2 .14 5.16 5.16 0 0 0 4 4.85l.15 2.2a1 1 0 0 0 1 .93h.07a1 1 0 0 0 .93-1.07l-.15-2.19a4.54 4.54 0 0 0 2.23-1.62 5.74 5.74 0 0 0-.51-7.3 4.41 4.41 0 0 0-3.43-1.35Z"></path>
</svg>
